<?xml version="1.0" encoding="UTF-8" standalone="no"?>
<!-- Created with Inkscape (http://www.inkscape.org/) -->

<svg
   width="55.298431mm"
   height="62.711136mm"
   viewBox="0 0 55.298431 62.711136"
   version="1.1"
   id="svg4217"
   inkscape:export-filename="logo.svg"
   inkscape:export-xdpi="96"
   inkscape:export-ydpi="96"
   xmlns:inkscape="http://www.inkscape.org/namespaces/inkscape"
   xmlns:sodipodi="http://sodipodi.sourceforge.net/DTD/sodipodi-0.dtd"
   xmlns="http://www.w3.org/2000/svg"
   xmlns:svg="http://www.w3.org/2000/svg">
  <sodipodi:namedview
     id="namedview4219"
     pagecolor="#505050"
     bordercolor="#eeeeee"
     borderopacity="1"
     inkscape:showpageshadow="0"
     inkscape:pageopacity="0"
     inkscape:pagecheckerboard="0"
     inkscape:deskcolor="#505050"
     inkscape:document-units="mm"
     showgrid="false" />
  <defs
     id="defs4214">
    <inkscape:path-effect
       effect="fillet_chamfer"
       id="path-effect4412"
       is_visible="true"
       lpeversion="1"
       nodesatellites_param="F,0,1,1,1,1.0583333,0,1 @ F,0,0,1,1,0,0,1 @ F,0,0,1,1,0,0,1 @ F,0,1,1,1,1.0583333,0,1 @ F,0,1,1,1,1.0583333,0,1 @ F,0,0,1,1,0,0,1 @ F,0,0,1,1,0,0,1 @ F,0,0,1,1,0,0,1 @ F,0,0,1,1,0,0,1 @ F,0,1,1,1,1.0583333,0,1 @ F,0,1,1,1,1.0583333,0,1 @ F,0,0,1,1,0,0,1 @ F,0,0,1,1,0,0,1 @ F,0,0,1,1,0,0,1 @ F,0,0,1,1,0,0,1 @ F,0,1,1,1,1.0583333,0,1 @ F,0,1,1,1,1.0583333,0,1 @ F,0,0,1,1,0,0,1 @ F,0,0,1,1,0,0,1 @ F,0,0,1,1,0,0,1 @ F,0,0,1,1,0,0,1 @ F,0,0,1,1,0,0,1 @ F,0,1,1,1,1.0583333,0,1 @ F,0,1,1,1,1.0583333,0,1 @ F,0,0,1,1,0,0,1 @ F,0,0,1,1,0,0,1 @ F,0,0,1,1,0,0,1 @ F,0,0,1,1,0,0,1 @ F,0,0,1,1,0,0,1 @ F,0,0,1,1,0,0,1 @ F,0,0,1,1,0,0,1 @ F,0,0,1,1,0,0,1 @ F,0,0,1,1,0,0,1 @ F,0,0,1,1,0,0,1 @ F,0,1,1,1,1.0583333,0,1 @ F,0,1,1,1,1.0583333,0,1 @ F,0,0,1,1,0,0,1 @ F,0,0,1,1,0,0,1 @ F,0,0,1,1,0,0,1 @ F,0,0,1,1,0,0,1 @ F,0,0,1,1,0,0,1 @ F,0,0,1,1,0,0,1 @ F,0,1,1,1,1.0583333,0,1 @ F,0,1,1,1,1.0583333,0,1 @ F,0,0,1,1,0,0,1 @ F,0,0,1,1,0,0,1 @ F,0,0,1,1,0,0,1 @ F,0,0,1,1,0,0,1 @ F,0,0,1,1,0,0,1 @ F,0,0,1,1,0,0,1 @ F,0,0,1,1,0,0,1 @ F,0,0,1,1,0,0,1 @ F,0,1,1,1,1.0583333,0,1 @ F,0,1,1,1,1.0583333,0,1 @ F,0,0,1,1,0,0,1 @ F,0,0,1,1,0,0,1 @ F,0,0,1,1,0,0,1 @ F,0,0,1,1,0,0,1 @ F,0,1,1,1,1.0583333,0,1 @ F,0,1,1,1,1.0583333,0,1 @ F,0,0,1,1,0,0,1 @ F,0,0,1,1,0,0,1 @ F,0,0,1,1,0,0,1 @ F,0,0,1,1,0,0,1 @ F,0,1,1,1,1.0583333,0,1 @ F,0,1,1,1,1.0583333,0,1 @ F,0,0,1,1,0,0,1 @ F,0,0,1,1,0,0,1 @ F,0,1,1,1,1.0583333,0,1 | F,0,1,1,1,1.0583333,0,1 @ F,0,1,1,1,1.0583333,0,1 @ F,0,0,1,1,0,0,1 @ F,0,0,1,1,0,0,1 @ F,0,1,1,1,1.0583333,0,1 @ F,0,1,1,1,1.0583333,0,1 @ F,0,0,1,1,0,0,1 @ F,0,0,1,1,0,0,1"
       unit="px"
       method="auto"
       mode="F"
       radius="4"
       chamfer_steps="1"
       flexible="false"
       use_knot_distance="true"
       apply_no_radius="true"
       apply_with_radius="true"
       only_selected="true"
       hide_knots="true" />
  </defs>
  <g
     inkscape:label="Layer 1"
     inkscape:groupmode="layer"
     id="layer1"
     transform="translate(-12.742375,-85.408223)">
    <path
       id="path1113-4"
       style="color:#000000;fill:#0a0a0a;stroke-linecap:square;-inkscape-stroke:none"
       d="m 33.862573,86.46514 c -0.155257,1.737049 -0.679766,3.368461 -1.405639,4.456959 -0.871805,1.307331 -1.725016,1.894458 -3.310393,1.894458 h -2.115633 a 1.0583333,1.0583333 135 0 0 -1.058333,1.058333 v 4.232817 a 1.0583333,1.0583333 45 0 0 1.058333,1.058333 h 2.115633 c 1.631223,0 3.134374,-0.408711 4.45916,-1.091923 -0.324055,1.018946 -0.925353,1.952323 -1.894975,2.783293 -1.597186,1.3688 -4.41691,2.543 -9.177734,2.543 h -2.117184 a 1.0583333,1.0583333 135 0 0 -1.058333,1.05833 l 0,4.23282 a 1.0583333,1.0583333 45 0 0 1.058333,1.05833 h 2.117184 c 4.676028,0 8.470606,-0.95138 11.355379,-2.67374 -0.116033,1.39087 -0.780408,2.68056 -3.06803,4.05298 -2.560464,1.5361 -7.319325,2.85306 -14.90245,2.85306 h -2.117183 a 1.0583333,1.0583333 135 0 0 -1.058333,1.05833 v 4.23489 a 1.0583333,1.0583333 45 0 0 1.058333,1.05833 l 2.117183,0 c 8.170528,0 13.945267,-1.28985 17.992184,-3.65662 v 6.57531 c -2.973658,0.0899 -5.716151,0.95003 -7.671883,2.90576 -2.071267,2.07127 -2.912217,5.02128 -2.914034,8.19537 l -0.0014,2.11718 a 1.0583001,1.0583001 45.036993 0 0 1.057633,1.059 l 4.232817,0.003 a 1.0583665,1.0583665 135.03699 0 0 1.059033,-1.05766 l 0.0014,-2.11719 c 0.0012,-2.11757 0.480156,-3.13477 1.054716,-3.70933 0.524409,-0.52441 1.418944,-0.97005 3.181718,-1.04387 v 3.42873 3.17552 h 5.17e-4 l -5.17e-4,0.79117 c -0.0012,2.11756 -0.482221,3.13425 -1.056783,3.70881 -0.574564,0.57457 -1.590341,1.05472 -3.708818,1.05472 h -2.642732 -2.117184 a 1.0583333,1.0583333 135 0 0 -1.058333,1.05833 v 4.23489 a 1.0583333,1.0583333 45 0 0 1.058333,1.05833 h 2.117184 2.642732 c 3.176206,0 6.128229,-0.84432 8.1995,-2.91558 1.35731,-1.35731 2.186452,-3.09208 2.597774,-5.01985 1.973144,0.0323 2.942573,0.49983 3.497461,1.05471 0.57456,0.57457 1.053166,1.59086 1.053166,3.70934 v 2.11718 a 1.0583333,1.0583333 45 0 0 1.058333,1.05833 h 4.234884 a 1.0583333,1.0583333 135 0 0 1.058333,-1.05833 v -2.11718 c 0,-3.17621 -0.842765,-6.12823 -2.914034,-8.1995 -1.955619,-1.95562 -4.696768,-2.81578 -7.668266,-2.90732 v -0.009 h -0.0021 v -0.79479 -16.35507 c 4.046644,2.36624 9.821449,3.65559 17.992184,3.65559 h 2.115633 a 1.0583333,1.0583333 135 0 0 1.058333,-1.05833 v -4.23489 a 1.0583333,1.0583333 45 0 0 -1.058333,-1.05833 h -2.115633 c -7.584708,0 -12.344078,-1.31711 -14.904,-2.85306 -2.286493,-1.3719 -2.950415,-2.66065 -3.06648,-4.05143 2.884681,1.72172 6.679264,2.67219 11.355379,2.67219 h 2.117701 a 1.0583333,1.0583333 135 0 0 1.058333,-1.05833 v -4.23282 a 1.0583333,1.0583333 45 0 0 -1.058333,-1.05833 l -2.117701,0 c -4.762491,0 -7.581098,-1.17445 -9.177734,-2.543 -0.969125,-0.83068 -1.570257,-1.763504 -1.894458,-2.782259 1.324172,0.68251 2.826357,1.090889 4.457092,1.090889 h 2.117184 a 1.0583333,1.0583333 135 0 0 1.058333,-1.058333 V 93.87453 a 1.0583333,1.0583333 45 0 0 -1.058333,-1.058333 h -2.117184 c -1.587496,0 -2.439059,-0.585909 -3.310392,-1.892908 -0.725539,-1.088309 -1.249262,-2.720738 -1.40421,-4.458585 -0.05189,-0.581955 -0.521213,-1.056814 -1.105714,-1.056781 l -4.232784,2.4e-4 c -0.584501,3.3e-5 -1.053817,0.474989 -1.105835,1.056977 z m 19.891252,56.35663 v 4.23489 a 1.0583333,1.0583333 45 0 0 1.058333,1.05833 h 2.115633 7.9375 2.117184 a 1.0583333,1.0583333 135 0 0 1.058333,-1.05833 v -4.23489 a 1.0583333,1.0583333 45 0 0 -1.058333,-1.05833 h -2.117184 -7.9375 -2.115633 a 1.0583333,1.0583333 135 0 0 -1.058333,1.05833 z"
       inkscape:path-effect="#path-effect4412"
       inkscape:original-d="m 33.910075,85.408223 c 0,2.116057 -0.581337,4.206544 -1.453141,5.513876 -0.871805,1.307331 -1.725016,1.894458 -3.310393,1.894458 h -3.173966 v 6.349483 h 3.173966 c 1.631223,0 3.134374,-0.408711 4.45916,-1.091923 -0.324055,1.018946 -0.925353,1.952323 -1.894975,2.783293 -1.597186,1.3688 -4.41691,2.543 -9.177734,2.543 h -3.175517 v 6.34948 h 3.175517 c 4.676028,0 8.470606,-0.95138 11.355379,-2.67374 -0.116033,1.39087 -0.780408,2.68056 -3.06803,4.05298 -2.560464,1.5361 -7.319325,2.85306 -14.90245,2.85306 h -3.175516 v 6.35155 h 3.175516 c 8.170528,0 13.945267,-1.28985 17.992184,-3.65662 v 6.57531 c -2.973658,0.0899 -5.716151,0.95003 -7.671883,2.90576 -2.071267,2.07127 -2.912217,5.02128 -2.914034,8.19537 l -0.0021,3.17551 6.349483,0.004 0.0021,-3.17552 c 0.0012,-2.11757 0.480156,-3.13477 1.054716,-3.70933 0.524409,-0.52441 1.418944,-0.97005 3.181718,-1.04387 v 3.42873 3.17552 h 5.17e-4 l -5.17e-4,0.79117 c -0.0012,2.11756 -0.482221,3.13425 -1.056783,3.70881 -0.574564,0.57457 -1.590341,1.05472 -3.708818,1.05472 h -2.642732 -3.175517 v 6.35155 h 3.175517 2.642732 c 3.176206,0 6.128229,-0.84432 8.1995,-2.91558 1.35731,-1.35731 2.186452,-3.09208 2.597774,-5.01985 1.973144,0.0323 2.942573,0.49983 3.497461,1.05471 0.57456,0.57457 1.053166,1.59086 1.053166,3.70934 v 3.17551 h 6.35155 v -3.17551 c 0,-3.17621 -0.842765,-6.12823 -2.914034,-8.1995 -1.955619,-1.95562 -4.696768,-2.81578 -7.668266,-2.90732 v -0.009 h -0.0021 v -0.79479 -16.35507 c 4.046644,2.36624 9.821449,3.65559 17.992184,3.65559 h 3.173966 v -6.35155 h -3.173966 c -7.584708,0 -12.344078,-1.31711 -14.904,-2.85306 -2.286493,-1.3719 -2.950415,-2.66065 -3.06648,-4.05143 2.884681,1.72172 6.679264,2.67219 11.355379,2.67219 h 3.176034 v -6.34948 h -3.176034 c -4.762491,0 -7.581098,-1.17445 -9.177734,-2.543 -0.969125,-0.83068 -1.570257,-1.763504 -1.894458,-2.782259 1.324172,0.68251 2.826357,1.090889 4.457092,1.090889 h 3.175517 v -6.349483 h -3.175517 c -1.587496,0 -2.439059,-0.585909 -3.310392,-1.892908 -0.871332,-1.306998 -1.451591,-3.398764 -1.451591,-5.515426 z m 19.84375,56.355217 v 6.35155 h 3.173966 7.9375 3.175517 v -6.35155 h -3.175517 -7.9375 z" />
  </g>
</svg>
