<svg version="1" xmlns="http://www.w3.org/2000/svg" width="506.667" height="506.667" viewBox="0 0 380.000000 380.000000"><path d="M175.9 30.5c-.2.1-3.1.6-6.4 1-15.3 1.7-34.3 6.9-51.5 14.3-10.3 4.4-17.2 7.9-31.6 16.3C80.9 65.4 58 81.4 55.2 84c-1.3 1.2-5.1 4.4-8.5 7.2-7.1 5.8-32.7 31.4-35.2 35.2-1 1.5-1.4 3.3-1 4.6.8 2.6 20.6 19.2 33.6 28.3 29.6 20.6 69.3 39.1 94.9 44.3 1.4.3 4.1.9 6 1.4 1.9.5 6.7 1.4 10.5 2 3.9.6 8.1 1.3 9.5 1.6 6 1.3 39 1.1 50-.2 48-6 99.9-30 143.3-66.4 10.4-8.7 12.2-10.9 11.2-14.1-1.1-3.2-30-31.8-42.5-41.9-26.9-21.7-54.4-37.4-81.6-46.6-8.8-2.9-8.4-2.8-17.7-4.9-6.3-1.4-9.3-2-15.7-3.1-3.1-.6-35.7-1.4-36.1-.9zm33.1 20C220.9 54 231 60 240.1 69c14.5 14.4 20.9 29.1 21.4 49 .5 21.4-5.8 37.2-20.5 52.1-9.3 9.5-16.6 14-29.5 18.5-7.2 2.5-9.3 2.8-21.5 2.8-12.1 0-14.3-.3-21.5-2.8-12.4-4.2-20.1-9.1-29.1-18-13.5-13.5-20.2-28.7-20.9-47-.4-10 1-20.8 3.5-27.1 5-12.3 8.8-18.3 17.6-27.2 5.1-5.1 9.7-9.3 10.2-9.3.6 0 2.7-1.1 4.7-2.5 4.7-3.1 13.2-6.3 21.5-8 8.1-1.7 25.4-1.2 33 1z"/><path d="M178.3 71.4c-17.9 4.3-33.4 20.2-37.1 38.1-1.6 7.3-.7 20 1.7 26.9 13.5 38.1 63.6 45.3 87.6 12.6 7.8-10.7 11.1-26.2 8.3-39.6-3.4-16.4-16.7-31.1-33.3-36.9-6.2-2.2-20.3-2.7-27.2-1.1zM195 97.7c2.4 6 4.8 11.3 5.4 11.9.6.6 6.2 3.1 12.3 5.5 6.2 2.4 11.3 4.6 11.3 4.9 0 .3-5.1 2.5-11.3 4.9-6.1 2.4-11.7 4.9-12.3 5.5-.6.6-3.1 6.2-5.5 12.3-2.4 6.2-4.6 11.3-4.9 11.3-.3 0-2.5-5.1-4.9-11.3-2.4-6.1-4.9-11.7-5.5-12.3-.6-.6-6.2-3.1-12.3-5.5-6.2-2.4-11.3-4.6-11.3-4.9 0-.3 5.2-2.5 11.6-5 6.3-2.5 11.9-5 12.3-5.5.4-.6 2.8-6 5.2-12.2 2.4-6.1 4.7-10.9 5-10.7.4.2 2.6 5.2 4.9 11.1zM81.1 217.8c-6.6 8-9.8 11.1-11.8 11.5-1.6.3-3.7.7-4.8 1-1.1.3-5.8 1.4-10.4 2.5-4.5 1.2-8.5 2.3-8.7 2.5-1 .9.9 3.4 4.9 6.4 2.3 1.8 5.6 4.4 7.2 5.9 1.7 1.4 4.3 3.6 5.9 4.9 2.4 1.9 2.9 3.1 3.1 7.6.5 7.7 1.7 25.9 2 28.9.2 1.4.3 4.2.4 6.3.1 2.1.6 3.7 1.1 3.5.6-.2 5.9-8.8 11.8-19.2l10.8-18.9 10-2.3c13.8-3.3 17.4-4.4 17.4-5.3 0-.4-4.9-4.9-10.8-9.9l-10.8-9-2.8-12.4c-1.6-6.8-3.4-12.9-4.1-13.7-1.1-1.1-2.9.7-10.4 9.7zM289.4 207.8c-.8.6-2.2 5.2-4 13.7-.1.5-.9 3.7-1.7 7-1.6 6.1-2.1 6.6-10.6 13.5-9.3 7.5-12.6 10.9-11.6 11.8.6.5 6.5 2.2 13.2 3.7 6.8 1.6 12.7 3.1 13.1 3.4.5.3 5.5 8.7 11.1 18.6 10.4 18.1 11.7 20.2 12.5 19.4.2-.2.7-4.9 1-10.4 2-31.9 2.1-33.5 3.8-34.9.7-.7 5.5-4.8 10.6-9.1 7.5-6.3 9.1-8 8-9-.7-.6-6.9-2.5-13.7-4.1l-12.5-2.9-8.9-10.7c-4.9-6-9-10.8-9-10.8-.1 0-.7.4-1.3.8zM189.2 228.2c-.5.7-4.2 7.7-8.1 15.6L174 258l-15.5 7.7c-8.5 4.3-15.4 8.2-15.2 8.8.1.5 7 4.4 15.1 8.6 8.2 4.2 15.2 8.2 15.6 9 .4.8 1.5 4.5 2.3 8.4 2 8.8 11.4 47.6 12.9 53 .9 3.5 1.2 3.7 1.9 2 .8-1.8 5-19 12.4-50.5 1.5-6.3 3.1-12.1 3.5-12.9.4-.8 7.4-4.8 15.6-9 8.1-4.2 14.8-8.1 14.8-8.6.1-.6-6.8-4.5-15.2-8.8l-15.2-7.8-7.8-15.4c-4.2-8.5-8-15.5-8.3-15.5-.4 0-1.1.6-1.7 1.2z"/></svg>